{"title":"Hellboy {2004} DVDRip.Xvid~Wolftatt2~","uid":6803896,"size":973072455,"categoryP":"video","categoryS":"movies","magnet":"?xt=urn:btih:5db6540972d40ae89df7d1bb62b9a9cc06393afa&amp;dn=Hellboy+%7B2004%7D+DVDRip.Xvid%7EWolftatt2%7E&amp;tr=udp%3A%2F%2Ftracker.openbittorrent.com%3A80&amp;tr=udp%3A%2F%2Fopen.demonii.com%3A1337&amp;tr=udp%3A%2F%2Ftracker.coppersurfer.tk%3A6969&amp;tr=udp%3A%2F%2Fexodus.desync.com%3A6969","seeders":2,"leechers":0,"uploader":"Wolftatt2","files":6,"time":1320786474,"description":"Hellboy {2004}\n\nIn the final days of World War II, the Nazis attempt to use black \n\nmagic to aid their dying cause. The Allies raid the camp where the \n\nceremony is taking place, but not before a demon - Hellboy - has \n\nalready been conjured. Joining the Allied forces, Hellboy eventually \n\ngrows to adulthood, serving the cause of good rather than evil.\n &lt;a href=&quot;\nhttp://www.imdb.com/title/tt0167190/&quot; rel=&quot;nofollow&quot; target=&quot;_NEW&quot;&gt;\nhttp://www.imdb.com/title/tt0167190/&lt;/a&gt;\n\n~~~~FILE INFO~~~~\nComplete name                    : Hellboy {2004} \n\nDVDRip.Xvid~Wolftatt2~.avi\nFormat                           : AVI\nFormat/Info                      : Audio Video Interleave\nFile size                        : 928 MiB\nDuration                         : 2h 7mn\nOverall bit rate                 : 1 021 Kbps\nSource                           : HELLBOY_DVD_D1.Title1\nWriting application              : Lavf51.12.1\n\nVideo\nFormat                           : xvid\nCodec ID                         : xvid\nDuration                         : 2h 7mn\nBit rate                         : 881 Kbps\nWidth                            : 596 pixels\nHeight                           : 314 pixels\nDisplay aspect ratio             : 1.898\nFrame rate                       : 25.000 fps\nBits/(Pixel*Frame)               : 0.188\nStream size                      : 800 MiB (86%)\n\nAudio\nFormat                           : MPEG Audio\nFormat version                   : Version 1\nFormat profile                   : Layer 3\nMode                             : Joint stereo\nMode extension                   : MS Stereo\nCodec ID                         : 55\nCodec ID/Hint                    : MP3\nDuration                         : 2h 7mn\nBit rate mode                    : Constant\nBit rate                         : 128 Kbps\nChannel(s)                       : 2 channels\nSampling rate                    : 44.1 KHz\nCompression mode                 : Lossy\nStream size                      : 116 MiB (13%)\nAlignment                        : Aligned on interleaves\nInterleave, duration             : 26 ms (0.65 video frame)\nInterleave, preload duration     : 26 ms\n\nThanks for Downloading!\n\nPlease Seed!\n\n~Wolftatt2~","torrent":{"xt":"urn:btih:5db6540972d40ae89df7d1bb62b9a9cc06393afa","amp;dn":"Hellboy+%7B2004%7D+DVDRip.Xvid%7EWolftatt2%7E","amp;tr":["udp%3A%2F%2Ftracker.openbittorrent.com%3A80","udp%3A%2F%2Fopen.demonii.com%3A1337","udp%3A%2F%2Ftracker.coppersurfer.tk%3A6969","udp%3A%2F%2Fexodus.desync.com%3A6969"],"infoHash":"5db6540972d40ae89df7d1bb62b9a9cc06393afa","infoHashBuffer":{"type":"Buffer","data":[93,182,84,9,114,212,10,232,157,247,209,187,98,185,169,204,6,57,58,250]},"announce":[],"urlList":[]}}